<?xml version="1.0" encoding="UTF-8" standalone="no"?>
<!DOCTYPE svg PUBLIC "-//W3C//DTD SVG 1.1//EN" "http://www.w3.org/Graphics/SVG/1.1/DTD/svg11.dtd">
<svg width="100%" height="100%" viewBox="0 0 593 633" version="1.1" xmlns="http://www.w3.org/2000/svg" xmlns:xlink="http://www.w3.org/1999/xlink" xml:space="preserve" xmlns:serif="http://www.serif.com/" style="fill-rule:evenodd;clip-rule:evenodd;stroke-linecap:round;stroke-linejoin:round;stroke-miterlimit:1.5;">
    <g transform="matrix(1,0,0,1,-852.018,-729.78)">
        <g transform="matrix(0.592609,0,0,0.592609,348.377,297.986)">
            <g transform="matrix(1,0,0,1,-76.3431,0.355088)">
                <path d="M1472.04,1382.81L1472.04,1280.55L1369.72,1280.55L1369.72,1382.81L1267.46,1382.81L1267.46,1485.13L1369.72,1485.13L1369.72,1587.39L1472.04,1587.39L1472.04,1485.13L1574.3,1485.13L1574.3,1382.81L1472.04,1382.81Z" style="fill:white;stroke:black;stroke-width:10.55px;"/>
            </g>
            <g transform="matrix(1,0,0,1,269.677,0.355088)">
                <path d="M1472.04,1382.81L1472.04,1280.55L1369.72,1280.55L1369.72,1382.81L1267.46,1382.81L1267.46,1485.13L1369.72,1485.13L1369.72,1587.39L1472.04,1587.39L1472.04,1485.13L1574.3,1485.13L1574.3,1382.81L1472.04,1382.81Z" style="fill:white;stroke:black;stroke-width:10.55px;"/>
            </g>
            <path d="M1473.96,889.479C1557.87,842.631 1645.46,796.16 1722.12,761.559L1762.07,733.905C1807.61,742.817 1841.29,791.734 1833.68,837.762L1699.24,968.663C1646.73,1054.92 1608.67,1109.34 1515.28,1172.58C1461.47,1152.85 1417.84,1122.93 1381.58,1085.65C1378.59,1090.41 1375.38,1095.17 1371.96,1099.91C1336.52,1149.03 1271.84,1163 1271.84,1163C1271.84,1163 1264.71,1097.21 1300.14,1048.1C1307.77,1037.53 1315.83,1027.93 1323.98,1019.51C1151.96,1037.27 1001.79,1155.98 955.922,1329.12C908.361,1508.66 987.222,1692.86 1138.28,1791.16C927.576,1695.88 810.142,1459.38 871.313,1228.47C939.462,971.211 1203.65,817.68 1460.91,885.829C1465.29,886.989 1469.64,888.206 1473.96,889.479ZM1494.06,915.015C1519.12,907.099 1542.06,908.887 1545.26,919.004C1548.45,929.121 1530.7,943.762 1505.64,951.677C1480.58,959.593 1457.64,957.805 1454.44,947.688C1451.25,937.57 1469,922.93 1494.06,915.015Z" style="fill:white;stroke:black;stroke-width:10.55px;"/>
        </g>
    </g>
</svg>
